<mxfile host="65bd71144e">
    <diagram id="dpZ093a68A8Am0y-Hr_0" name="Page-1">
        <mxGraphModel dx="417" dy="497" grid="1" gridSize="10" guides="1" tooltips="1" connect="1" arrows="1" fold="1" page="1" pageScale="1" pageWidth="827" pageHeight="1169" math="0" shadow="0">
            <root>
                <mxCell id="0"/>
                <mxCell id="1" parent="0"/>
                <mxCell id="5" value="Email" style="rounded=0;whiteSpace=wrap;html=1;" parent="1" vertex="1">
                    <mxGeometry x="120" y="140" width="250" height="40" as="geometry"/>
                </mxCell>
                <mxCell id="9" value="Navigation Bar" style="rounded=0;whiteSpace=wrap;html=1;" parent="1" vertex="1">
                    <mxGeometry x="120" y="40" width="250" height="40" as="geometry"/>
                </mxCell>
                <mxCell id="10" value="Last Name" style="rounded=0;whiteSpace=wrap;html=1;" parent="1" vertex="1">
                    <mxGeometry x="120" y="250" width="250" height="40" as="geometry"/>
                </mxCell>
                <mxCell id="11" value="Employee registration" style="text;html=1;strokeColor=none;fillColor=none;align=center;verticalAlign=middle;whiteSpace=wrap;rounded=0;" parent="1" vertex="1">
                    <mxGeometry x="160" y="100" width="160" height="30" as="geometry"/>
                </mxCell>
                <mxCell id="12" value="First Name" style="rounded=0;whiteSpace=wrap;html=1;" parent="1" vertex="1">
                    <mxGeometry x="120" y="200" width="250" height="40" as="geometry"/>
                </mxCell>
                <mxCell id="13" value="Phone" style="rounded=0;whiteSpace=wrap;html=1;" parent="1" vertex="1">
                    <mxGeometry x="120" y="310" width="250" height="40" as="geometry"/>
                </mxCell>
                <mxCell id="15" value="DoB&amp;nbsp;" style="rounded=0;whiteSpace=wrap;html=1;" parent="1" vertex="1">
                    <mxGeometry x="120" y="370" width="250" height="40" as="geometry"/>
                </mxCell>
                <mxCell id="16" value="Male" style="text;html=1;strokeColor=none;fillColor=none;align=center;verticalAlign=middle;whiteSpace=wrap;rounded=0;" vertex="1" parent="1">
                    <mxGeometry x="130" y="450" width="60" height="30" as="geometry"/>
                </mxCell>
                <mxCell id="17" value="Female" style="text;html=1;strokeColor=none;fillColor=none;align=center;verticalAlign=middle;whiteSpace=wrap;rounded=0;" vertex="1" parent="1">
                    <mxGeometry x="320" y="450" width="60" height="30" as="geometry"/>
                </mxCell>
                <mxCell id="18" value="Register&lt;br&gt;" style="rounded=1;whiteSpace=wrap;html=1;fillColor=#008a00;fontColor=#ffffff;strokeColor=#005700;" vertex="1" parent="1">
                    <mxGeometry x="200" y="510" width="110" height="50" as="geometry"/>
                </mxCell>
            </root>
        </mxGraphModel>
    </diagram>
</mxfile>